REM DIRINDEX 1\2,1\3,1\4
REM DIRNAME cjc075,folder01,folder02,folder03
TITLE ""
FILE "CD2Track46.mp3" MP3
  TRACK 01 AUDIO
    TITLE "0:"
    INDEX 01 00:00:00
  TRACK 02 AUDIO
    TITLE "2:cjc075_0950"
    INDEX 01 00:00:23
  TRACK 03 AUDIO
    TITLE "2:cjc075_0951"
    INDEX 01 00:05:56
  TRACK 04 AUDIO
    TITLE "2:cjc075_0952"
    INDEX 01 00:14:23
  TRACK 05 AUDIO
    TITLE "2:cjc075_0953"
    INDEX 01 00:21:17
  TRACK 06 AUDIO
    TITLE "0:"
    INDEX 01 00:36:68
